<svg xmlns="http://www.w3.org/2000/svg" viewBox="0 0 256 256" role="img" aria-label="Rosa dos ventos com folhas e águia central">
  <rect width="256" height="256" fill="#062d5d"/>
  <circle cx="128" cy="128" r="96" fill="#fff"/>
  <path d="M128 30C149 56 151 82 128 111C105 82 107 56 128 30Z" fill="#d5263d"/>
  <path d="M226 128C200 149 174 151 145 128C174 105 200 107 226 128Z" fill="#07559b"/>
  <path d="M128 226C107 200 105 174 128 145C151 174 149 200 128 226Z" fill="#07559b"/>
  <path d="M30 128C56 107 82 105 111 128C82 151 56 149 30 128Z" fill="#d5263d"/>
  <g fill="#fff" stroke-width="4" stroke-linejoin="round">
    <path d="M59 59C80 61 94 74 106 106C74 94 61 80 59 59Z" stroke="#07559b"/>
    <path d="M197 59C195 80 182 94 150 106C162 74 176 61 197 59Z" stroke="#07559b"/>
    <path d="M197 197C176 195 162 182 150 150C182 162 195 176 197 197Z" stroke="#d5263d"/>
    <path d="M59 197C61 176 74 162 106 150C94 182 80 195 59 197Z" stroke="#d5263d"/>
  </g>
  <circle cx="128" cy="128" r="44" fill="#fff" stroke="#062d5d" stroke-width="6"/>
  <g fill="#062d5d">
    <path d="M126 122C114 109 102 102 86 96L91 108L76 101L84 115L68 114L83 127L70 132C86 139 101 141 116 135L126 131Z"/>
    <path d="M130 122C142 109 154 102 170 96L165 108L180 101L172 115L188 114L173 127L186 132C170 139 155 141 140 135L130 131Z"/>
    <path d="M116 119C120 110 126 107 133 109C140 111 143 117 142 123C150 124 155 128 159 133L146 134C142 145 136 153 128 162C120 153 114 145 110 134L97 133C102 127 108 123 116 119Z"/>
    <path d="M132 109C139 102 148 103 153 108L164 112L153 117C147 119 143 117 140 115Z"/>
  </g>
  <circle cx="147" cy="109" r="2.5" fill="#fff"/>
  <path d="M153 108L165 112L153 117Z" fill="#d5263d"/>
</svg>
