<svg xmlns="http://www.w3.org/2000/svg" viewBox="0 0 256 256"><rect width="256" height="256" rx="52" fill="#f7f9fd"/><path d="M27 160c48-54 117-64 202-46-55 38-127 48-202 46Z" fill="#07559b"/><path d="M27 160c52-25 118-32 202-46-51 41-124 57-202 46Z" fill="#d5263d"/><path d="M38 69h180l-90 62Z" fill="#fff"/><path d="m128 90 7 17 18 1-14 11 5 18-17-10-16 10 5-18-14-11 18-1Z" fill="#07559b"/><path d="M72 170c8-38 41-55 70-35 24 17 18 54-16 62-32 7-59-5-54-27Z" fill="#fff"/><path d="M78 177c21-20 42-22 59-10-17 21-37 28-59 10Z" fill="#07559b"/><path d="M83 181c18-7 33-7 49-4" fill="none" stroke="#d5263d" stroke-width="7" stroke-linecap="round"/></svg>
